<svg width="19" height="24" viewBox="0 0 19 24" fill="none" xmlns="http://www.w3.org/2000/svg">
<path d="M4.8125 6.625C4.63016 6.625 4.4553 6.69743 4.32636 6.82636C4.19743 6.9553 4.125 7.13016 4.125 7.3125C4.125 7.49484 4.19743 7.6697 4.32636 7.79864C4.4553 7.92757 4.63016 8 4.8125 8H11.6875C11.8698 8 12.0447 7.92757 12.1736 7.79864C12.3026 7.6697 12.375 7.49484 12.375 7.3125C12.375 7.13016 12.3026 6.9553 12.1736 6.82636C12.0447 6.69743 11.8698 6.625 11.6875 6.625H4.8125ZM4.125 10.0625C4.125 9.88016 4.19743 9.70529 4.32636 9.57636C4.4553 9.44743 4.63016 9.375 4.8125 9.375H11.6875C11.8698 9.375 12.0447 9.44743 12.1736 9.57636C12.3026 9.70529 12.375 9.88016 12.375 10.0625C12.375 10.2448 12.3026 10.4197 12.1736 10.5486C12.0447 10.6776 11.8698 10.75 11.6875 10.75H4.8125C4.63016 10.75 4.4553 10.6776 4.32636 10.5486C4.19743 10.4197 4.125 10.2448 4.125 10.0625ZM4.125 12.8125C4.125 12.6302 4.19743 12.4553 4.32636 12.3264C4.4553 12.1974 4.63016 12.125 4.8125 12.125H7.5625C7.74484 12.125 7.9197 12.1974 8.04864 12.3264C8.17757 12.4553 8.25 12.6302 8.25 12.8125C8.25 12.9948 8.17757 13.1697 8.04864 13.2986C7.9197 13.4276 7.74484 13.5 7.5625 13.5H4.8125C4.63016 13.5 4.4553 13.4276 4.32636 13.2986C4.19743 13.1697 4.125 12.9948 4.125 12.8125Z" fill="black"/>
<path d="M10.3125 0H2.75C2.02065 0 1.32118 0.289731 0.805456 0.805456C0.289731 1.32118 0 2.02065 0 2.75V19.25C0 19.9793 0.289731 20.6788 0.805456 21.1945C1.32118 21.7103 2.02065 22 2.75 22H13.75C14.4793 22 15.1788 21.7103 15.6945 21.1945C16.2103 20.6788 16.5 19.9793 16.5 19.25V6.1875L10.3125 0ZM10.3125 1.375V4.125C10.3125 4.67201 10.5298 5.19661 10.9166 5.58341C11.3034 5.9702 11.828 6.1875 12.375 6.1875H15.125V19.25C15.125 19.6147 14.9801 19.9644 14.7223 20.2223C14.4644 20.4801 14.1147 20.625 13.75 20.625H2.75C2.38533 20.625 2.03559 20.4801 1.77773 20.2223C1.51987 19.9644 1.375 19.6147 1.375 19.25V2.75C1.375 2.38533 1.51987 2.03559 1.77773 1.77773C2.03559 1.51987 2.38533 1.375 2.75 1.375H10.3125Z" fill="black"/>
<rect x="9" y="14.5" width="9" height="9" rx="4.5" fill="black" stroke="white"/>
<path d="M12.576 17.3508C12.6079 17.3188 12.6459 17.2935 12.6876 17.2762C12.7294 17.2589 12.7741 17.25 12.8193 17.25C12.8645 17.25 12.9093 17.2589 12.9511 17.2762C12.9928 17.2935 13.0308 17.3188 13.0627 17.3508C13.0947 17.3828 13.12 17.4207 13.1373 17.4625C13.1546 17.5042 13.1635 17.549 13.1635 17.5942C13.1635 17.6394 13.1546 17.6841 13.1373 17.7259C13.12 17.7677 13.0947 17.8056 13.0627 17.8376L11.9304 18.9692L13.0627 20.1008C13.1273 20.1654 13.1635 20.2529 13.1635 20.3442C13.1635 20.4355 13.1273 20.523 13.0627 20.5876C12.9982 20.6521 12.9106 20.6884 12.8193 20.6884C12.7281 20.6884 12.6405 20.6521 12.576 20.5876L11.201 19.2126C11.169 19.1806 11.1436 19.1427 11.1262 19.1009C11.1089 19.0592 11.1 19.0144 11.1 18.9692C11.1 18.924 11.1089 18.8792 11.1262 18.8374C11.1436 18.7957 11.169 18.7577 11.201 18.7258L12.576 17.3508V17.3508ZM14.4377 17.3508C14.4058 17.3188 14.3678 17.2935 14.3261 17.2762C14.2843 17.2589 14.2395 17.25 14.1943 17.25C14.1491 17.25 14.1044 17.2589 14.0626 17.2762C14.0209 17.2935 13.9829 17.3188 13.951 17.3508C13.919 17.3828 13.8937 17.4207 13.8764 17.4625C13.8591 17.5042 13.8502 17.549 13.8502 17.5942C13.8502 17.6394 13.8591 17.6841 13.8764 17.7259C13.8937 17.7677 13.919 17.8056 13.951 17.8376L15.0833 18.9692L13.951 20.1008C13.8864 20.1654 13.8502 20.2529 13.8502 20.3442C13.8502 20.4355 13.8864 20.523 13.951 20.5876C14.0155 20.6521 14.1031 20.6884 14.1943 20.6884C14.2856 20.6884 14.3732 20.6521 14.4377 20.5876L15.8127 19.2126C15.8447 19.1806 15.8701 19.1427 15.8875 19.1009C15.9048 19.0592 15.9137 19.0144 15.9137 18.9692C15.9137 18.924 15.9048 18.8792 15.8875 18.8374C15.8701 18.7957 15.8447 18.7577 15.8127 18.7258L14.4377 17.3508V17.3508Z" fill="#D9D9D9"/>
</svg>
